/* XPM */
static char *icon[] = {
/* width height num_colors chars_per_pixel */
"    25    27      220            2",
/* colors */
".. c #040204",
".# c #1c8224",
".a c #8c0204",
".b c #040294",
".c c #8cea34",
".d c #042e04",
".e c #440204",
".f c #040244",
".g c #04ba04",
".h c #240204",
".i c #041604",
".j c #cc060c",
".k c #040224",
".l c #44ca44",
".m c #0402d4",
".n c #f4f224",
".o c #04d22c",
".p c #040e04",
".q c #cc160c",
".r c #d4d684",
".s c #140204",
".t c #0cba3c",
".u c #ec0204",
".v c #0412dc",
".w c #34aa84",
".x c #1c02ec",
".y c #4ca204",
".z c #0402ec",
".A c #dcea64",
".B c #040a04",
".C c #1cc234",
".D c #f40e04",
".E c #040214",
".F c #a42214",
".G c #1c026c",
".H c #e4ee8c",
".I c #0416ac",
".J c #042a74",
".K c #fc0204",
".L c #040267",
".M c #e4ee5c",
".N c #04ca34",
".O c #040ac0",
".P c #044208",
".Q c #24d65c",
".R c #3c9a5c",
".S c #6c0204",
".T c #040ad8",
".U c #040af4",
".V c #04ae2c",
".W c #14028c",
".X c #04c62c",
".Y c #dc0e14",
".Z c #0cde44",
".0 c #4c9e4c",
".1 c #0c0205",
".2 c #241204",
".3 c #1c0224",
".4 c #140e0c",
".5 c #f4160c",
".6 c #0c02f8",
".7 c #ac1614",
".8 c #042204",
".9 c #040238",
"#. c #14d23c",
"## c #140a04",
"#a c #f4f678",
"#b c #94267c",
"#c c #ecfea4",
"#d c #0c3e34",
"#e c #0c0a90",
"#f c #5c1a04",
"#g c #14025c",
"#h c #dc0614",
"#i c #f4fa14",
"#j c #04da34",
"#k c #fcd294",
"#l c #0cc238",
"#m c #0402fc",
"#n c #0c0217",
"#o c #b42614",
"#p c #0c0a74",
"#q c #e4fe54",
"#r c #14ca3f",
"#s c #b4fe3c",
"#t c #540204",
"#u c #34020c",
"#v c #0402e1",
"#w c #1c0207",
"#x c #0c0a08",
"#y c #1cca4c",
"#z c #fc0a0a",
"#A c #04027c",
"#B c #0c0adc",
"#C c #14aa3c",
"#D c #04ce2c",
"#E c #5cae3c",
"#F c #1c1204",
"#G c #040605",
"#H c #249204",
"#I c #2c2a04",
"#J c #04c21c",
"#K c #141604",
"#L c #d4e674",
"#M c #f40204",
"#N c #041ee4",
"#O c #0406f0",
"#P c #fc0e0c",
"#Q c #040617",
"#R c #f4f6a4",
"#S c #0cce34",
"#T c #044e04",
"#U c #34a654",
"#V c #040ee4",
"#W c #0cca24",
"#X c #0c0605",
"#Y c #f40a1c",
"#Z c #bc1a24",
"#0 c #e40a04",
"#1 c #ecfa30",
"#2 c #3c96c4",
"#3 c #3ce224",
"#4 c #ecfe74",
"#5 c #ece67c",
"#6 c #5cb22c",
"#7 c #54a66c",
"#8 c #8cfe4c",
"#9 c #9c321c",
"a. c #5cd25c",
"a# c #54a664",
"aa c #24be4c",
"ab c #4cb264",
"ac c #1c9634",
"ad c #2c0a4c",
"ae c #044a3c",
"af c #1c2204",
"ag c #1416fc",
"ah c #240a2c",
"ai c #dc1a20",
"aj c #c4f62c",
"ak c #5c9a64",
"al c #f4f65c",
"am c #241a04",
"an c #9c0614",
"ao c #bc2234",
"ap c #e4e284",
"aq c #ac2e2c",
"ar c #04367c",
"as c #fcfeac",
"at c #140aa4",
"au c #141e1c",
"av c #dcda9c",
"aw c #640a0c",
"ax c #04e64c",
"ay c #e4ea7c",
"az c #14c24c",
"aA c #3cae54",
"aB c #c41a34",
"aC c #04ba1c",
"aD c #0c02a4",
"aE c #fcf614",
"aF c #0c16ec",
"aG c #ecee9c",
"aH c #0caa24",
"aI c #e40e04",
"aJ c #e40204",
"aK c #dc221c",
"aL c #043604",
"aM c #1402a4",
"aN c #bc2624",
"aO c #d40a14",
"aP c #0c06cc",
"aQ c #d41a04",
"aR c #14be44",
"aS c #ecf254",
"aT c #0c4604",
"aU c #3c0204",
"aV c #2c1e0c",
"aW c #1c8634",
"aX c #94ee34",
"aY c #0c1204",
"aZ c #ec0614",
"a0 c #141214",
"a1 c #f4fa84",
"a2 c #f4faa4",
"a3 c #0cc644",
"a4 c #f40a08",
"a5 c #c41a1c",
"a6 c #040254",
"a7 c #0c1604",
"a8 c #140214",
"a9 c #040a14",
"b. c #1c0a04",
"b# c #0c0a9c",
"ba c #e40a14",
"bb c #04062c",
"bc c #04d62c",
"bd c #fc0604",
"be c #040edc",
"bf c #04ca29",
"bg c #141204",
"bh c #04260c",
"bi c #04063c",
"bj c #f4fe1c",
"bk c #0406dc",
"bl c #0c069c",
"bm c #ecfe4c",
"bn c #043204",
"bo c #3c9e5c",
"bp c #0406fc",
"bq c #04067c",
"br c #04be1c",
"bs c #ecf29c",
"bt c #04020c",
"bu c #04024c",
"bv c #04d234",
"bw c #14020c",
"bx c #0402f4",
"by c #04021c",
"bz c #fc020c",
/* pixels */
".........p.1#Q.1................................#G",
".........B......bt..............................#G",
"..........#Z#oaw....................bt............",
".........1#YaJao#G.......1.ka6by..................",
"........#x#t.a.1bybubt#G.Eatbx.bbt..bt............",
"........#G#G..#naMbe.G..bt.b#VaD.f#ebb............",
"...............Eb#.v#A.E.E#G.9bu#v#mblbt..........",
"........#G..bt#x.3adbt..by#p.b.T.U.O.9............",
"...............eaQaB.s.1.L#m#m.TaP.9..............",
"....bt...haU.SaO#PaK.1a6.Obx#m.baha8..#G..aubnbh#G",
".s.....hai#Y.Y.K.5#t.L#B#m.6agar.R.i.B.1.1aL.Q#U#G",
".1.....h.q.K#0bd#M#9a6#vbp#O#Nazbc#rab.p...Pa3aA#G",
"....bw#w.j.Kbd#haBaU.fbk#m.z.xa#.V.Z#jaa.pa0.i.i..",
".s#G#G.eba.Dbdan.....W.UaF#2ae.#aR#Sbf.XaW#G......",
"...B.s#X.abza4ai#w...k.b.Jax.Vbv#Da3bf#lbo#G......",
".1#G..#wa5#zbd.K#u.E.1..ae.C#.aC#W.X#J#y.8........",
".....1.7bda4.DaZ#t.9bi#7az.obf.Qa3#j.o.V.B........",
"#G..#w.Y#PaI.uaZ#b.mbp.w.X.taH.i#C#D#lak#G.1......",
".B.1...S#z.u.S.e#g.z#O.I#daa.g.l#Tac.0#G..........",
".....saK.u#zaq..bi.m#mbqbna3.N#y.X.P#G.k..........",
"a9..aUaJ.YaN#w#Q.k.Lbubt#Tbrbf#s#8.d.1.r#G........",
".p#w...F#f#kav#G#Ra1...E#caX#3#iaf#4.4a1#G........",
"#Gbt#G.H.2#1bg#5b.aS.4#LaTaj#HaEbsaS##bj#X........",
"by#Gbtay#a#a.1alav.M#G#q#6.c.y.n#xap#F#1#G........",
".9....#I#FbmaVam#K.A#F..aYa.#E.sa7..#G#x..........",
"......a2bs.1..asaG.....E.p.B.Bbybt..bt..........#G",
"bt...B..#G#x..#x..#x.....1#G.s.E.................."
};
