<?xml version="1.0" standalone="no"?>
<!DOCTYPE svg PUBLIC "-//W3C//DTD SVG 20000303 Stylable//EN"
"http://www.w3.org/TR/2000/03/WD-SVG-20000303/DTD/svg-20000303-exchange.dtd">

<svg width="388px" height="388px">
<g transform="translate(20, 0) scale (0.950980)">
<path style="stroke: #000000" d="M 71 337 L 356 337 z"/>
<path style="stroke: #000000" d="M 71 45 L 71 337 z"/>
<circle style="fill: #    ff; stroke: #    ff" cx="218" cy="136" r="5"/>
<circle style="fill: #    ff; stroke: #    ff" cx="215" cy="131" r="5"/>
<circle style="fill: #    ff; stroke: #    ff" cx="251" cy="106" r="5"/>
<circle style="fill: #    ff; stroke: #    ff" cx="171" cy="176" r="5"/>
<circle style="fill: #    ff; stroke: #    ff" cx="172" cy="233" r="5"/>
<circle style="fill: #    ff; stroke: #    ff" cx="144" cy="244" r="5"/>
<circle style="fill: #    ff; stroke: #    ff" cx="213" cy="118" r="5"/>
<circle style="fill: #    ff; stroke: #    ff" cx="214" cy="156" r="5"/>
<circle style="fill: #    ff; stroke: #    ff" cx="182" cy="136" r="5"/>
<circle style="fill: #    ff; stroke: #    ff" cx="150" cy="264" r="5"/>
<circle style="fill: #    ff; stroke: #    ff" cx="231" cy="72" r="5"/>
<circle style="fill: #    ff; stroke: #    ff" cx="176" cy="147" r="5"/>
<circle style="fill: #    ff; stroke: #    ff" cx="254" cy="150" r="5"/>
<circle style="fill: #    ff; stroke: #    ff" cx="213" cy="122" r="5"/>
<circle style="fill: #    ff; stroke: #    ff" cx="201" cy="151" r="5"/>
<circle style="fill: #    ff; stroke: #    ff" cx="212" cy="152" r="5"/>
<circle style="fill: #    ff; stroke: #    ff" cx="193" cy="178" r="5"/>
<circle style="fill: #    ff; stroke: #    ff" cx="183" cy="161" r="5"/>
<circle style="fill: #    ff; stroke: #    ff" cx="277" cy="78" r="5"/>
<circle style="fill: #    ff; stroke: #    ff" cx="204" cy="205" r="5"/>
<circle style="fill: #    ff; stroke: #    ff" cx="209" cy="92" r="5"/>
<circle style="fill: #    ff; stroke: #    ff" cx="161" cy="62" r="5"/>
<circle style="fill: #ff0000; stroke: #ff0000" cx="121" cy="220" r="5"/>
<circle style="fill: #ff0000; stroke: #ff0000" cx="137" cy="151" r="5"/>
<circle style="fill: #ff0000; stroke: #ff0000" cx="71" cy="287" r="5"/>
<circle style="fill: #ff0000; stroke: #ff0000" cx="100" cy="203" r="5"/>
<circle style="fill: #ff0000; stroke: #ff0000" cx="90" cy="261" r="5"/>
<circle style="fill: #ff0000; stroke: #ff0000" cx="82" cy="172" r="5"/>
<circle style="fill: #ff0000; stroke: #ff0000" cx="100" cy="203" r="5"/>
<circle style="fill: #ff0000; stroke: #ff0000" cx="71" cy="222" r="5"/>
<circle style="fill: #ff0000; stroke: #ff0000" cx="92" cy="231" r="5"/>
<circle style="fill: #ff0000; stroke: #ff0000" cx="81" cy="147" r="5"/>
<circle style="fill: #ff0000; stroke: #ff0000" cx="110" cy="175" r="5"/>
<circle style="fill: #ff0000; stroke: #ff0000" cx="85" cy="237" r="5"/>
<circle style="fill: #ff0000; stroke: #ff0000" cx="110" cy="192" r="5"/>
<circle style="fill: #ff0000; stroke: #ff0000" cx="144" cy="96" r="5"/>
<circle style="fill: #ff0000; stroke: #ff0000" cx="129" cy="134" r="5"/>
<circle style="fill: #ff0000; stroke: #ff0000" cx="115" cy="149" r="5"/>
<circle style="fill: #ff0000; stroke: #ff0000" cx="98" cy="263" r="5"/>
<circle style="fill: #ff0000; stroke: #ff0000" cx="116" cy="204" r="5"/>
<circle style="fill: #ff0000; stroke: #ff0000" cx="108" cy="45" r="5"/>
<circle style="fill: #ff0000; stroke: #ff0000" cx="122" cy="219" r="5"/>
<circle style="fill: #ff0000; stroke: #ff0000" cx="97" cy="169" r="5"/>
<circle style="fill: #  cc33; stroke: #  cc33" cx="223" cy="318" r="5"/>
<circle style="fill: #  cc33; stroke: #  cc33" cx="282" cy="216" r="5"/>
<circle style="fill: #  cc33; stroke: #  cc33" cx="259" cy="286" r="5"/>
<circle style="fill: #  cc33; stroke: #  cc33" cx="356" cy="143" r="5"/>
<circle style="fill: #  cc33; stroke: #  cc33" cx="217" cy="337" r="5"/>
<circle style="fill: #  cc33; stroke: #  cc33" cx="284" cy="237" r="5"/>
<circle style="fill: #  cc33; stroke: #  cc33" cx="299" cy="229" r="5"/>
<circle style="fill: #  cc33; stroke: #  cc33" cx="307" cy="182" r="5"/>
<circle style="fill: #  cc33; stroke: #  cc33" cx="281" cy="199" r="5"/>
<circle style="fill: #  cc33; stroke: #  cc33" cx="268" cy="228" r="5"/>
<circle style="fill: #  cc33; stroke: #  cc33" cx="296" cy="183" r="5"/>
<circle style="fill: #  cc33; stroke: #  cc33" cx="307" cy="199" r="5"/>
<circle style="fill: #  cc33; stroke: #  cc33" cx="271" cy="231" r="5"/>
<circle style="fill: #  cc33; stroke: #  cc33" cx="235" cy="257" r="5"/>
<circle style="fill: #  cc33; stroke: #  cc33" cx="245" cy="228" r="5"/>
<circle style="fill: #  cc33; stroke: #  cc33" cx="289" cy="234" r="5"/>
<circle style="fill: #  cc33; stroke: #  cc33" cx="225" cy="229" r="5"/>
<circle style="fill: #  cc33; stroke: #  cc33" cx="240" cy="313" r="5"/>
<circle style="fill: #  cc33; stroke: #  cc33" cx="319" cy="198" r="5"/>
<circle style="fill: #  cc33; stroke: #  cc33" cx="237" cy="285" r="5"/>
<circle style="fill: #  cc33; stroke: #  cc33" cx="294" cy="230" r="5"/>
<circle style="fill: #  cc33; stroke: #  cc33" cx="218" cy="279" r="5"/>
<circle style="fill: #  cc33; stroke: #  cc33" cx="210" cy="255" r="5"/>
<circle style="fill: #  cc33; stroke: #  cc33" cx="219" cy="300" r="5"/>
<circle style="fill: #  cc33; stroke: #  cc33" cx="227" cy="302" r="5"/>
<circle style="fill: #  cc33; stroke: #  cc33" cx="260" cy="155" r="5"/>
<circle style="fill: #  cc33; stroke: #  cc33" cx="226" cy="242" r="5"/>
<circle style="fill: #  cc33; stroke: #  cc33" cx="283" cy="247" r="5"/>
<circle style="fill: #  cc33; stroke: #  cc33" cx="244" cy="264" r="5"/>
<circle style="fill: #  cc33; stroke: #  cc33" cx="249" cy="297" r="5"/>
<circle style="fill: #  cc33; stroke: #  cc33" cx="224" cy="208" r="5"/>
</g>
</svg>
